<?xml version="1.0" encoding="utf-8"?>
<!-- Generator: Adobe Illustrator 24.3.0, SVG Export Plug-In . SVG Version: 6.00 Build 0)  -->
<svg version="1.1" id="Layer_1" xmlns="http://www.w3.org/2000/svg" xmlns:xlink="http://www.w3.org/1999/xlink" x="0px" y="0px"
	 viewBox="0 0 1000 1000" style="enable-background:new 0 0 1000 1000;" xml:space="preserve">
<style type="text/css">
	.st0{fill:#4C4C4C;}
	.st1{opacity:0.71;}
	.st2{fill:#C7FFE9;}
	.st3{fill:#B0D0F7;}
	.st4{fill:#AFE9F9;}
	.st5{opacity:0.54;}
	.st6{fill:#E8A9FF;}
	.st7{fill:#FCAB9D;}
	.st8{fill:#DBDCDD;}
</style>
<g>
	<g>
		<path class="st0" d="M151.87,717.46c-0.63,1.39-1.73,2.36-3.3,2.92c-1.56,0.56-3.05,0.52-4.47-0.13c-1.42-0.65-2.43-1.8-3.02-3.47
			c-0.6-1.66-0.56-3.21,0.12-4.63c0.68-1.43,1.79-2.42,3.36-2.98c1.56-0.56,3.04-0.5,4.41,0.19c1.38,0.69,2.37,1.87,2.96,3.53
			C152.52,714.55,152.5,716.08,151.87,717.46z M154.9,705.95l30.78-11.05l-1.28-4.26l5.86-2.1l6.26,17.44l-5.57,2l-1.09-2.34
			c-0.66-1.36-1.69-1.79-3.11-1.28l-20.38,7.31c-0.83,0.3-1.34,0.63-1.54,1.01c-0.2,0.37-0.17,0.9,0.07,1.59l0.77,2.62l-6.08,2.18
			L154.9,705.95z"/>
		<path class="st0" d="M152.37,677.96l-6.12,1.17l-2.48-12.93l4.97-0.95c-2.14-0.96-3.97-2.44-5.49-4.42
			c-1.52-1.98-2.52-4.25-3.01-6.8c-0.74-3.87-0.21-7.08,1.61-9.62c1.81-2.54,4.94-4.24,9.37-5.09l19.96-3.82l-0.61-4.4l6.12-1.17
			l3.49,18.2l-5.81,1.11l-0.71-2.48c-0.25-0.75-0.57-1.26-0.97-1.56c-0.4-0.29-1.06-0.35-1.98-0.18l-15.76,3.02
			c-2.8,0.54-4.8,1.37-5.98,2.49c-1.18,1.13-1.55,2.9-1.08,5.32c0.46,2.42,1.6,4.2,3.4,5.34c1.8,1.13,3.75,1.5,5.84,1.1l18.51-3.54
			l-0.61-4.4l6.12-1.17l3.49,18.2l-5.81,1.11l-0.71-2.48c-0.25-0.74-0.57-1.26-0.97-1.56c-0.4-0.29-1.06-0.35-1.98-0.18l-21.18,4.06
			c-1.53,0.29-2.2,1.08-2,2.37L152.37,677.96z"/>
		<path class="st0" d="M134.88,592.61c0-2.23,0.31-4.36,0.94-6.39l-7.87,0c-1.14,0-1.76,0.67-1.87,2.02l-0.24,3.35l-6.15,0
			l0.01-14.48l47.35,0.03c1.19-0.05,1.79-0.7,1.79-1.95l0.16-2.72l6.23,0l-0.01,12.62l-4.59,0l-0.08,0.23
			c3.79,2.34,5.68,5.87,5.68,10.59c0,5.92-1.98,10.07-5.93,12.46c-3.58,2.18-7.97,3.26-13.16,3.26c-6.75,0-12.15-1.68-16.19-5.03
			C136.9,603.24,134.88,598.58,134.88,592.61z M163.07,586.24l-20.17-0.01c-0.83,1.87-1.25,3.84-1.25,5.92
			c0,3.43,1.37,5.93,4.12,7.52c2.75,1.59,6.25,2.38,10.51,2.38c8.72,0.01,13.08-2.8,13.09-8.4c0-2.13-0.61-3.89-1.83-5.3
			C166.33,586.95,164.84,586.24,163.07,586.24z"/>
		<path class="st0" d="M132.77,543.18c-1.22,0.91-2.65,1.24-4.29,0.99c-1.64-0.25-2.93-1.01-3.87-2.25c-0.94-1.25-1.27-2.74-1-4.49
			c0.27-1.74,1.04-3.08,2.31-4.02c1.27-0.93,2.73-1.27,4.37-1.02c1.64,0.25,2.9,1.01,3.78,2.28c0.88,1.27,1.19,2.77,0.92,4.52
			C134.73,540.93,133.99,542.26,132.77,543.18z M140.92,534.51l32.32,4.99l0.91-4.35l6.16,0.95l-2.83,18.32l-5.85-0.9l0.16-2.57
			c0.08-1.51-0.63-2.38-2.12-2.61l-21.39-3.31c-0.87-0.13-1.48-0.08-1.84,0.15c-0.35,0.23-0.58,0.71-0.69,1.43l-0.57,2.67
			l-6.39-0.99L140.92,534.51z"/>
		<path class="st0" d="M158.33,473.58l27.63,8.7c0.79,0.25,1.38,0.28,1.76,0.11c0.38-0.18,0.71-0.61,0.98-1.28l0.9-2.33l5.94,1.87
			l-3.72,11.81l-4.31-1.36l-0.14,0.2c2.79,3.6,3.5,7.55,2.15,11.86c-1.59,5.05-4.37,8.28-8.36,9.7c-3.98,1.41-8.77,1.24-14.37-0.52
			c-6.73-2.12-11.47-5.41-14.2-9.86c-2.73-4.45-3.07-9.95-1.02-16.48C152.89,481.78,155.15,477.64,158.33,473.58z M179.68,489.77
			l-19.24-6.05c-1.08,1.19-2,2.99-2.77,5.42c-1.04,3.32-0.46,6.14,1.74,8.47c2.21,2.33,5.51,4.18,9.92,5.57
			c8.02,2.52,12.84,1.21,14.46-3.94c0.69-2.18,0.59-4.17-0.29-5.97C182.65,491.47,181.37,490.3,179.68,489.77z"/>
		<path class="st0" d="M173.19,448.88l-5.49-2.94l6.22-11.6l4.46,2.39c-1.05-2.1-1.55-4.39-1.48-6.89c0.07-2.49,0.72-4.89,1.95-7.17
			c1.86-3.48,4.3-5.63,7.31-6.46c3.01-0.83,6.5-0.18,10.48,1.95l17.91,9.6l2.3-3.8l5.49,2.94l-8.76,16.33l-5.22-2.8l1.01-2.37
			c0.28-0.73,0.35-1.34,0.23-1.82c-0.13-0.48-0.6-0.94-1.42-1.38l-14.14-7.58c-2.52-1.35-4.59-1.96-6.22-1.83
			c-1.63,0.13-3.03,1.28-4.19,3.45c-1.17,2.17-1.41,4.27-0.72,6.28c0.69,2.02,1.97,3.53,3.84,4.53l16.61,8.91l2.3-3.8l5.49,2.94
			l-8.76,16.33l-5.22-2.8l1.01-2.38c0.28-0.74,0.35-1.34,0.23-1.82c-0.13-0.48-0.6-0.94-1.42-1.38l-19.01-10.19
			c-1.37-0.74-2.39-0.54-3.05,0.58L173.19,448.88z"/>
		<path class="st0" d="M248.18,379.09l-15.57-14.93c-0.6-0.57-1.12-0.87-1.56-0.9c-0.44-0.03-0.93,0.2-1.47,0.69l-2.43,2.2
			l-4.55-4.36l9.11-9.5l4.22,4.04c-0.82-2.08-1.02-4.28-0.61-6.62c0.41-2.34,1.5-4.44,3.28-6.29c1.78-1.86,3.89-3.23,6.33-4.13
			l8.38,8.03l-4.62,5.61l-2.59-2.48c-0.75-0.72-1.4-0.98-1.94-0.78c-0.58,0.23-1.16,0.65-1.74,1.25c-1.44,1.5-2.08,3.24-1.93,5.22
			c0.15,1.98,1.05,3.76,2.7,5.34l13.04,12.5l4.91-4.68l4.44,4.26l-14.44,15.07l-4.27-4.1l1.61-2.02c0.46-0.63,0.7-1.2,0.71-1.7
			C249.18,380.31,248.85,379.73,248.18,379.09z"/>
		<path class="st0" d="M292.06,302.85l17.15,23.34c0.49,0.67,0.94,1.05,1.36,1.13c0.41,0.08,0.93-0.07,1.55-0.46l2.1-1.35l3.69,5.02
			l-9.98,7.33l-2.67-3.64l-0.23,0.07c0.12,4.55-1.64,8.16-5.28,10.84c-4.27,3.14-8.43,4.1-12.47,2.88
			c-4.05-1.21-7.81-4.18-11.28-8.91c-4.18-5.69-6.06-11.14-5.63-16.35c0.43-5.21,3.4-9.84,8.92-13.9
			C282.84,306.25,287.1,304.25,292.06,302.85z M299.72,328.53l-11.94-16.25c-1.57,0.32-3.38,1.23-5.43,2.73
			c-2.8,2.06-4,4.68-3.6,7.86c0.4,3.18,1.98,6.63,4.71,10.36c4.98,6.78,9.64,8.57,14,5.37c1.84-1.35,2.94-3.01,3.3-4.98
			C301.11,331.65,300.77,329.95,299.72,328.53z"/>
		<path class="st0" d="M316.52,278.83c-1.46-0.44-2.57-1.39-3.34-2.87c-0.77-1.47-0.93-2.95-0.48-4.45
			c0.45-1.49,1.46-2.65,3.02-3.47c1.56-0.82,3.1-0.99,4.61-0.52c1.51,0.47,2.64,1.45,3.41,2.92c0.77,1.47,0.9,2.94,0.41,4.4
			c-0.5,1.46-1.53,2.6-3.09,3.41C319.49,279.08,317.98,279.27,316.52,278.83z M328.34,280.26l15.14,28.99l4.04-1.85l2.88,5.52
			l-16.43,8.58l-2.74-5.25l2.17-1.4c1.26-0.83,1.55-1.92,0.85-3.25l-10.02-19.19c-0.41-0.78-0.81-1.25-1.21-1.39
			c-0.4-0.14-0.92-0.05-1.56,0.29l-2.49,1.12l-2.99-5.73L328.34,280.26z"/>
		<path class="st0" d="M360.75,248.48l17.31,45.9l4.24-1.35l2.2,5.83l-17.34,6.54l-2.09-5.54l2.32-1.13
			c1.35-0.68,1.77-1.72,1.23-3.13l-13.55-35.92c-0.4-1.07-1.23-1.42-2.48-1.06l-2.6,0.82l-2.28-6.05L360.75,248.48z"/>
		<path class="st0" d="M420,250.56l7.42-1.38l13.27,26.99l0.15-0.03l0.79-24.62l-3.95,0.5l-1.14-6.12l15.39-2.87l1.1,5.9l-2.5,0.62
			c-1,0.29-1.58,1.03-1.72,2.22l-1.56,31.98l-11.02,2.06l-10.53-21.64l-0.23,0.04l-2.25,24.03l-11.25,2.1l-13.43-29.1
			c-0.39-0.67-0.75-1.1-1.07-1.3c-0.33-0.2-0.83-0.27-1.5-0.2l-2.25,0.26l-1.1-5.89l17.53-3.27l1.14,6.12l-4.24,1.03l9.67,22.51
			l0.15-0.03L420,250.56z"/>
		<path class="st0" d="M511.52,244.8l-0.84,28.96c-0.02,0.83,0.1,1.41,0.38,1.73c0.28,0.32,0.78,0.52,1.5,0.59l2.49,0.23l-0.18,6.23
			l-12.38-0.36l0.13-4.51l-0.23-0.08c-2.7,3.66-6.31,5.43-10.83,5.3c-5.29-0.15-9.16-1.95-11.61-5.4c-2.45-3.45-3.58-8.1-3.41-13.96
			c0.2-7.06,2.08-12.51,5.61-16.35c3.54-3.84,8.73-5.67,15.58-5.47C502.15,241.81,506.74,242.85,511.52,244.8z M501.76,269.76
			l0.58-20.16c-1.43-0.72-3.42-1.11-5.96-1.19c-3.48-0.1-6.03,1.23-7.67,3.98c-1.64,2.76-2.52,6.45-2.66,11.06
			c-0.24,8.41,2.33,12.69,7.73,12.84c2.28,0.07,4.17-0.57,5.66-1.9C500.94,273.08,501.71,271.53,501.76,269.76z"/>
		<path class="st0" d="M561.07,289.39l1.26-5.78c-3.65,3.35-8.19,4.43-13.62,3.25c-7.86-1.71-10.84-6.96-8.93-15.73l3.33-15.29
			c0.3-1.37-0.18-2.22-1.44-2.55l-2.4-0.68l1.36-6.24l13.39,2.92l-4.76,21.84c-0.59,2.69-0.65,4.8-0.18,6.34
			c0.46,1.54,1.88,2.56,4.27,3.08c2.38,0.52,4.46,0.2,6.23-0.95c1.77-1.16,2.88-2.77,3.33-4.85l3-13.77
			c0.19-0.86,0.18-1.49-0.03-1.88c-0.21-0.39-0.67-0.66-1.38-0.82l-2.4-0.68l1.36-6.24l13.39,2.92l-8.02,36.83
			c-1.34,6.14-3.8,10.3-7.39,12.5c-3.59,2.19-8.39,2.64-14.4,1.33c-6.01-1.31-10.51-3.17-13.49-5.57l2.3-10.58l7.36,0.97l-0.8,3.65
			c-0.3,1.37,0.13,2.43,1.3,3.19c1.16,0.76,2.86,1.38,5.09,1.87C555.37,299.86,559.45,296.85,561.07,289.39z"/>
		<path class="st0" d="M620.35,275.87c-0.98-0.9-2.29-1.68-3.92-2.35c-1.64-0.66-3.1-0.82-4.39-0.48c-1.29,0.35-2.15,1.06-2.59,2.14
			c-0.44,1.08-0.6,2-0.48,2.75c0.12,0.75,0.47,1.49,1.07,2.24c0.95,1.11,2.17,2.24,3.67,3.38c1.5,1.14,2.6,2.01,3.31,2.6
			c0.71,0.6,1.55,1.46,2.53,2.58c0.97,1.12,1.63,2.17,1.96,3.15c0.96,2.46,0.88,5.09-0.25,7.88c-1.46,3.61-3.92,5.9-7.37,6.89
			c-3.45,0.98-7.2,0.65-11.24-0.98c-5.87-2.38-9.99-4.92-12.37-7.62l4.07-10.03l6.7,2.13l-1.4,3.46c-0.86,2.12,0.73,3.99,4.78,5.63
			c4.04,1.64,6.66,0.99,7.85-1.95c0.43-1.06,0.43-2.07,0.01-3.02c-0.43-0.96-0.93-1.69-1.5-2.21c-0.58-0.51-1.28-1.08-2.12-1.7
			c-0.84-0.62-1.66-1.23-2.45-1.83c-0.79-0.6-1.62-1.32-2.49-2.14c-0.87-0.83-1.77-1.88-2.71-3.16c-1.81-2.58-1.96-5.74-0.45-9.47
			c1.51-3.73,4-6.07,7.46-7.02c3.46-0.95,7.21-0.61,11.22,1.02c4.02,1.63,7.61,4.2,10.77,7.73l-3.51,8.66l-6.7-2.13l1.23-3.03
			C621.51,277.79,621.28,276.75,620.35,275.87z"/>
		<path class="st0" d="M679.61,301l-17.65,27.53l3.61,2.59l-3.36,5.24l-15.6-10l3.19-4.98l2.29,1.19c1.35,0.68,2.43,0.39,3.25-0.88
			l11.68-18.22c0.48-0.74,0.68-1.32,0.61-1.74c-0.07-0.42-0.41-0.82-1.03-1.21l-2.21-1.6l3.49-5.44L679.61,301z M674.99,290.03
			c-0.34-1.48-0.07-2.93,0.83-4.32c0.9-1.4,2.1-2.27,3.63-2.62c1.52-0.35,3.02-0.05,4.51,0.9c1.48,0.95,2.4,2.2,2.73,3.74
			c0.34,1.54,0.06,3.01-0.84,4.41c-0.9,1.4-2.1,2.24-3.62,2.54c-1.51,0.29-3.01-0.04-4.5-0.99
			C676.25,292.73,675.33,291.51,674.99,290.03z"/>
		<path class="st0" d="M698.72,321.67l4.14-4.66l9.84,8.74l-3.36,3.78c2.28-0.54,4.63-0.49,7.04,0.16c2.41,0.65,4.59,1.83,6.53,3.56
			c2.95,2.62,4.48,5.49,4.59,8.61c0.11,3.12-1.33,6.37-4.33,9.74l-13.49,15.2l3.16,3.12l-4.14,4.66l-13.86-12.3l3.93-4.43l2.08,1.53
			c0.65,0.44,1.22,0.65,1.72,0.64c0.5-0.01,1.05-0.37,1.67-1.06l10.65-12c1.9-2.13,2.97-4.01,3.22-5.62
			c0.25-1.61-0.54-3.24-2.39-4.88c-1.84-1.64-3.83-2.36-5.95-2.16c-2.12,0.2-3.89,1.1-5.3,2.69l-12.51,14.09l3.16,3.12l-4.14,4.66
			l-13.86-12.31l3.93-4.42l2.08,1.53c0.65,0.44,1.22,0.65,1.72,0.64c0.5-0.01,1.05-0.37,1.67-1.06l14.32-16.13
			c1.03-1.16,1.08-2.2,0.15-3.1L698.72,321.67z"/>
		<path class="st0" d="M730.47,386.54l18.6-15.01l-4.21-5.21l5.09-4.11l4.21,5.21l2.3-1.86c3.96-3.19,7.54-4.58,10.75-4.17
			c3.02,0.36,5.86,2.18,8.5,5.45c2.64,3.27,4.28,6.75,4.92,10.44l-6.27,2.16c-0.56-2.75-1.52-4.98-2.89-6.68
			c-1.37-1.7-2.73-2.53-4.08-2.51c-1.35,0.02-2.87,0.72-4.57,2.09l-2.85,2.3l7.24,8.97l-5.09,4.11l-7.24-8.97l-20.3,16.38l3.87,5.29
			l-4.85,3.91l-12.96-16.06l4.61-3.72l1.8,1.85c0.57,0.54,1.1,0.85,1.59,0.92C729.14,387.38,729.75,387.13,730.47,386.54z"/>
		<path class="st0" d="M763.46,412.02c3.33-1.92,6.51-3.08,9.53-3.5c3.02-0.42,5.66-0.17,7.93,0.74c4.27,1.8,7.52,4.63,9.74,8.5
			c1.55,2.7,2.43,5.24,2.62,7.61c0.2,2.37,0.03,4.42-0.51,6.14c-0.54,1.72-1.69,3.57-3.44,5.57c-1.76,2-4.12,3.85-7.09,5.56
			c-6.21,3.57-11.78,4.77-16.71,3.59c-4.93-1.18-8.75-4.12-11.45-8.82c-2.71-4.7-3.3-9.26-1.79-13.66
			C753.8,419.35,757.52,415.44,763.46,412.02z M760.31,434.5c2.82,4.9,8.19,5.08,16.11,0.52c4-2.3,6.72-4.6,8.16-6.9
			c1.43-2.29,1.41-4.73-0.08-7.32c-1.49-2.59-3.57-3.92-6.25-4c-2.68-0.08-5.73,0.87-9.15,2.84c-6.34,3.65-9.65,7.11-9.93,10.38
			C759.05,431.48,759.43,432.97,760.31,434.5z"/>
		<path class="st0" d="M773.16,476.5c-0.7-1.68-0.77-3.17-0.21-4.47c0.56-1.3,1.59-2.26,3.1-2.89c1.51-0.63,2.95-0.67,4.32-0.15
			c1.37,0.53,2.39,1.59,3.05,3.2c0.67,1.61,0.73,3.08,0.19,4.43c-0.54,1.35-1.56,2.33-3.07,2.96c-1.51,0.63-2.95,0.69-4.31,0.18
			C774.89,479.27,773.86,478.18,773.16,476.5z"/>
		<path class="st0" d="M799.3,523.88c-2.05,2.12-2.75,4.72-2.11,7.8c0.64,3.07,2.37,5.88,5.18,8.43l-5.19,4.5
			c-3.7-2.99-6.12-7.21-7.25-12.65c-1.13-5.44-0.31-10.08,2.47-13.92c2.78-3.84,7.52-6.46,14.23-7.86
			c6.71-1.4,12.13-0.66,16.25,2.22c4.13,2.88,6.66,6.57,7.6,11.06c0.94,4.5,0.77,8.89-0.51,13.19l-9.91,2.07l-2-6.9l3.66-0.76
			c1.37-0.29,2.12-0.96,2.24-2.02c0.12-1.06,0.07-2.12-0.15-3.19c-1.28-6.15-6.27-8.32-14.96-6.51
			C804.53,520.24,801.35,521.75,799.3,523.88z"/>
		<path class="st0" d="M815.82,562.81c3.84-0.14,7.19,0.31,10.06,1.35c2.87,1.04,5.09,2.49,6.66,4.36c2.93,3.58,4.48,7.6,4.64,12.07
			c0.11,3.11-0.3,5.76-1.23,7.95c-0.93,2.19-2.04,3.92-3.32,5.19c-1.28,1.27-3.16,2.37-5.65,3.32c-2.48,0.95-5.44,1.48-8.86,1.61
			c-7.16,0.26-12.64-1.28-16.45-4.62c-3.81-3.34-5.81-7.72-6.01-13.15c-0.2-5.42,1.4-9.73,4.79-12.91
			C803.85,564.77,808.97,563.05,815.82,562.81z M802.54,581.21c0.2,5.65,4.87,8.32,14,7.99c4.62-0.17,8.1-0.93,10.44-2.29
			c2.34-1.36,3.46-3.53,3.35-6.51c-0.11-2.98-1.33-5.13-3.66-6.45c-2.33-1.32-5.47-1.91-9.41-1.76c-7.32,0.27-11.86,1.78-13.63,4.55
			C802.83,577.95,802.47,579.44,802.54,581.21z"/>
		<path class="st0" d="M830.03,623.04l6.2,1.13l-2.36,12.95l-4.98-0.91c3.56,3.61,4.89,7.9,3.98,12.88
			c-0.91,4.98-3.56,7.96-7.97,8.96c3.56,3.6,4.9,7.86,4,12.76c-0.67,3.68-2.3,6.31-4.88,7.9c-2.59,1.59-6.1,1.97-10.54,1.16
			l-19.99-3.65l-1.03,4.33l-6.13-1.12l3.33-18.23l5.82,1.06l-0.23,2.57c-0.04,0.78,0.08,1.37,0.35,1.77c0.27,0.39,0.84,0.69,1.7,0.9
			l15.86,2.89c2.81,0.51,4.95,0.57,6.42,0.18c1.47-0.39,2.42-1.76,2.85-4.11c0.43-2.35,0.04-4.28-1.16-5.79
			c-1.2-1.51-3-2.49-5.4-2.93l-18.39-3.35l-1,4.17l-6.13-1.12l3.3-18.08l5.82,1.06l-0.23,2.57c-0.04,0.79,0.08,1.39,0.34,1.8
			c0.27,0.42,0.86,0.71,1.78,0.88l15.78,2.88c2.81,0.51,4.95,0.57,6.42,0.18c1.47-0.39,2.42-1.77,2.85-4.15
			c0.43-2.37,0.02-4.31-1.24-5.81c-1.26-1.5-2.99-2.44-5.18-2.84l-18.54-3.38l-0.98,4.1l-6.13-1.12l3.3-18.08l5.82,1.06l-0.23,2.57
			c-0.04,0.79,0.08,1.39,0.34,1.81c0.27,0.42,0.86,0.71,1.78,0.88l-0.01,0.08l21.14,3.86c0.87,0.16,1.49,0.13,1.88-0.09
			c0.38-0.22,0.67-0.68,0.85-1.39L830.03,623.04z"/>
	</g>
	<g>
		<g class="st1">
			<circle class="st2" cx="487.13" cy="571.76" r="233.79"/>
		</g>
		<g>
			<g>
				<g>
					<path class="st3" d="M612.48,467.41c-4.34-8.47-2.16-19.78,5.02-26.03c7.18-6.25,18.68-6.86,26.47-1.39
						c7.8,5.47,11.15,16.48,7.72,25.36c-14.41-2.32-29.45-0.59-42.95,4.94"/>
				</g>
				<g>
					<path class="st3" d="M510.17,680.88c6.98,0.23,14.19,0.42,20.7-2.13c21.05-8.23,23.34-38.74,41.71-51.9
						c-93.59,13.42-187.18,26.84-280.78,40.26C361.84,683.92,438.24,678.53,510.17,680.88z"/>
				</g>
				<g>
					<path class="st4" d="M675.31,494.71c2.34-9.89-5.51-19.9-14.99-23.58s-20.05-2.62-30.15-1.48
						c-26.76,3.03-54.16,6.53-77.99,19.06c-16.63,8.74-30.74,21.5-46.03,32.41c-26.21,18.71-55.83,31.98-85.22,45.12
						c-62.07,27.75-124.13,55.51-186.2,83.26c1.67,12.1,13.86,20.49,25.97,22.08c12.11,1.59,24.23-2,36-5.25
						c82.94-22.88,169.23-30.4,254.95-37.81c6.62-0.57,11.3-48.75,11.68-54.78c0.85-13.42-7.04-39.97,0.33-51.4
						c7.77-12.03,34.33-11.92,46.91-14.48C632.15,503.48,653.73,499.1,675.31,494.71z"/>
				</g>
				<g class="st5">
					<path class="st6" d="M641.14,711.94c36.88,3.02,75.99-4.1,104.92-27.18c-17.61-22.37-32.57-46.82-44.47-72.69
						c3.98,8.64-30.13,30.12-35.84,32.81c-18.37,8.68-37.74,9.35-57.19,4.14c-12.38-3.32-25.91-12.04-39.11-7.48
						c-14.9,5.15-28.26,29.88-34.69,42.73C565.92,699.79,606.43,709.09,641.14,711.94z"/>
				</g>
				<g class="st5">
					<path class="st7" d="M558.11,585.42c-8.82-31.87,6.16-68.69,34.75-85.54s68.26-12.27,92.27,10.61
						c24.01,22.88,30.29,62.04,14.67,91.2c-8.18,15.27-14.8,31.16-29.46,40.5c-12.94,8.25-34.67,10.93-49.93,9.01
						c-15.5-1.95-28.75-12.24-38.87-24.06c-16.07-18.77-26.31-42.41-28.98-66.9"/>
				</g>
				<g>
					<g>
						<path class="st0" d="M643.12,491.82c-0.63-10.52-1.19-21.05-1.65-31.58l1.46,1.03l-33.33,12.89
							c-11.12,4.25-22.21,8.57-33.25,13.02c-11.04,4.44-22.02,9.01-32.92,13.73c-5.48,2.39-10.84,4.52-14.51,7.96
							c-1.75,1.66-3.39,3.91-4.61,6.17c-1.21,2.22-2.01,4.83-1.8,6.28l0.04,0.25l-0.01,0.37l-0.09,2.33l-0.09,2.32l-2.2,0.98
							c-25.13,11.2-50.41,22.07-75.63,33.06c-25.29,10.83-50.55,21.73-75.94,32.34c-25.31,10.79-50.86,21.02-76.28,31.54
							c-12.7,5.28-25.49,10.38-38.29,15.44c-12.79,5.09-25.57,10.19-38.43,15.1c12.39-6.01,24.86-11.82,37.33-17.64
							c12.46-5.85,24.93-11.67,37.48-17.3c25.09-11.3,50.05-22.9,75.25-33.94c25.13-11.22,50.38-22.14,75.6-33.14
							c25.29-10.84,50.52-21.8,75.9-32.43l-2.28,3.3l0.13-2.33l0.02,0.62c-0.31-4.55,1.27-7.73,2.82-10.71
							c1.68-2.93,3.61-5.55,6.22-7.96c5.25-4.63,11.34-6.73,16.79-8.89c11.13-4.36,22.31-8.55,33.54-12.61
							c11.22-4.07,22.49-8,33.77-11.86c11.31-3.78,22.68-7.38,34.05-10.99l1.48-0.47l-0.01,1.5
							C643.58,470.75,643.38,481.28,643.12,491.82z"/>
					</g>
					<g>
						<path class="st0" d="M290.27,667.58c20.75-3.92,41.56-7.43,62.37-10.97c20.82-3.46,41.64-6.84,62.49-10.1l62.57-9.55
							l62.64-9.02l13.56-1.95l-10.23,9.09c-15.28,13.58-28.03,29.95-37.85,47.89l-1.24,2.26l-2.47-0.26
							c-13.83-1.45-27.7-2.52-41.57-3.51c-13.88-0.97-27.78-1.56-41.7-2.07c-27.83-0.88-55.72-0.85-83.64-0.06
							c27.76-3.17,55.72-4.81,83.7-5.07c13.99-0.2,27.99,0.09,41.99,0.58c14,0.46,27.97,1.42,41.93,2.57l-3.71,2
							c9.79-19,23.21-36.1,39.06-50.45l3.33,7.14l-62.68,8.76l-62.76,8.23c-20.93,2.68-41.88,5.22-62.83,7.69
							C332.26,663.15,311.3,665.57,290.27,667.58z"/>
					</g>
					<g>
						<path class="st0" d="M421.07,651.05c0.46,2.88,0.18,5.39-0.33,7.79c-0.53,2.38-1.35,4.61-2.42,6.71
							c-1.07,2.1-2.4,4.08-4.01,5.9c-1.64,1.81-3.52,3.51-6.13,4.82c-0.47-2.89-0.19-5.4,0.32-7.79c0.53-2.38,1.35-4.61,2.43-6.71
							c1.08-2.1,2.4-4.07,4.02-5.9C416.6,654.07,418.47,652.37,421.07,651.05z"/>
					</g>
					<g>
						<path class="st0" d="M461.58,643.82c-0.16,3.45-1.02,6.46-2.09,9.33c-1.1,2.86-2.47,5.54-4.08,8.07
							c-1.61,2.53-3.46,4.91-5.58,7.11c-2.15,2.18-4.52,4.23-7.59,5.83c0.15-3.46,1.01-6.47,2.08-9.34c1.1-2.86,2.47-5.54,4.09-8.06
							c1.62-2.53,3.47-4.9,5.59-7.1C456.15,647.47,458.52,645.42,461.58,643.82z"/>
					</g>
					<g>
						<path class="st0" d="M472.62,676.53c0.81-4.04,2.29-7.59,3.97-10.99c1.71-3.38,3.68-6.58,5.87-9.61
							c2.19-3.03,4.62-5.89,7.32-8.56c2.72-2.65,5.64-5.15,9.24-7.16c-0.8,4.04-2.28,7.6-3.96,11c-1.71,3.38-3.68,6.58-5.88,9.6
							c-2.2,3.02-4.63,5.88-7.33,8.55C479.13,672.01,476.21,674.51,472.62,676.53z"/>
					</g>
					<g>
						<path class="st0" d="M643.82,458.52c6.07,4.06,11.57,8.71,17.24,12.89c1.4,1.06,2.84,2.11,4.24,3.07
							c0.93,0.64,2.8,1.22,4.71,2.4c0.49,0.3,1.01,0.68,1.52,1.2c0.52,0.5,1.02,1.25,1.28,1.85c0.57,1.24,0.71,2.29,0.83,3.3
							c0.18,2.04-0.15,3.78-0.1,5.52c0.14,2.28-0.56,3.95-0.12,5.76c0.13,0.46,0.32,0.92,0.53,1.38c0.1,0.25,0.21,0.41,0.3,0.74
							c0.04,0.56,0.02,1.22-0.29,1.98c-0.63,1.6-2.27,2.47-3.22,2.67c-1.01,0.24-1.75,0.21-2.42,0.18c-2.54-0.19-4.32-0.79-6.04-1.2
							c-0.41-0.1-0.81-0.2-1.09-0.25l-1.03-0.12l-2.56-0.25c-3.41-0.33-6.82-0.49-10.22-0.42c-3.4-0.01-6.76,0.19-10.13,0.64
							c-14.01,1.67-28.01,3.99-41.76,7.54c-13.72,3.58-27.36,7.79-40.58,13.2l-1.7,0.7l-0.27-1.68c-0.7-4.46-0.63-8.85-0.52-13.19
							c0.11-4.34,0.37-8.65,0.31-12.99c1.27,8.56,0.84,17.47,2.96,25.59l-1.97-0.99c12.84-6.56,26.17-12.36,39.99-16.75
							c13.81-4.43,27.95-8.02,42.37-10.15c3.74-0.51,7.55-0.77,11.32-0.74c3.77,0.1,7.53,0.41,11.23,0.98l2.77,0.5
							c0.44,0.09,0.89,0.16,1.62,0.34c0.59,0.16,1.05,0.32,1.5,0.47c1.71,0.59,3.36,1.17,4.4,1.33c0.23,0.05,0.39,0.02,0.26,0.08
							c-0.1,0.01-0.84,0.46-1.06,1.23c-0.08,0.38-0.02,0.58,0.08,0.7c0.13-0.12,0.28-0.4,0.42-0.6c0.29-0.43,0.55-0.86,0.76-1.3
							c0.43-0.87,0.43-1.78,0.56-2.66c0.08-0.97,0.08-1.47-0.15-2.3l-1.25-5.17c-0.18-0.74-0.39-1.48-0.57-1.87
							c-0.14-0.32-0.23-0.39-0.82-0.8c-1.12-0.75-2.77-1.19-4.85-2.49c-1.55-1.07-3-2.13-4.47-3.24
							c-5.77-4.47-11.09-9.25-16.57-13.7L643.82,458.52z"/>
					</g>
					<g>
						<path class="st0" d="M613.2,470.09c-1.75-7.36-2.34-15.04-0.45-22.93c0.94-3.88,2.84-8.17,6.85-11.24
							c3.53-2.64,7.74-4.22,12.07-4.7c4.32-0.49,8.85,0.16,12.89,2.13c4,2.01,7.48,5.34,9.24,9.38c1.85,3.98,2.27,8.44,1.34,12.47
							c-0.94,4.02-3.24,7.63-6.4,9.77c3.66-6.68,2.77-14.1-0.63-19.1c-3.39-5.08-9.52-7.03-15.54-6.4c-3.01,0.29-5.95,1.33-8.5,2.88
							c-2.17,1.16-3.81,3.85-5.22,6.87C616.2,455.43,614.84,462.74,613.2,470.09z"/>
					</g>
					<g>
						<path class="st0" d="M643.07,492.83c7.1-0.05,14.29,0.17,21.36,1.86c7.05,1.61,13.99,5.03,19.25,10.45
							c2.67,2.72,4.73,5.75,6.75,8.73c2.01,3.02,3.87,6.16,5.56,9.38c3.4,6.45,6.02,13.33,7.93,20.41
							c3.63,14.22,4.83,28.83,3.37,43.54c-0.76,7.33-2.41,14.63-4.98,21.65c-2.63,7.01-6.31,13.65-10.96,19.66
							c-19.24,23.73-54.58,32.05-81.82,18.62c-27.06-13.42-41.79-45.88-34.76-73.73c-3.47,28.31,12.91,56.88,37.51,67.86
							c24.63,10.87,56.07,2.76,72.6-17.95c4.08-5.19,7.44-11.05,9.85-17.32c2.4-6.29,3.88-12.95,4.78-19.71
							c1.8-13.51,0.83-27.65-1.85-41.09c-1.45-6.72-3.72-13.26-6.52-19.58c-1.41-3.16-2.99-6.25-4.72-9.26
							c-1.76-3.02-3.57-5.99-5.71-8.51c-4.27-5.19-10.31-8.77-16.9-10.98C657.2,494.65,650.12,493.63,643.07,492.83z"/>
					</g>
					<g>
						<path class="st0" d="M665.78,540.58c-3.43-3.56-8.29-4.4-12.44-3.59c-4.17,0.74-7.64,3.41-10.39,6.63
							c-2.67,3.32-4.91,7.23-6.39,11.37c-1.51,4.1-2.46,8.37-2.45,12.57c-0.04,4.21,0.82,8.26,2.69,11.95
							c1.8,3.72,4.66,6.87,8.1,9.06c6.72,4.24,17.49,3.56,23.8-4.01c-1.5,4.74-5.79,8.53-10.73,10.38
							c-4.95,1.81-10.93,1.76-16.03-0.6c-10.26-4.6-16.43-15.92-16.14-26.83c0.04-5.44,1.36-10.72,3.5-15.51
							c2.22-4.73,4.99-9.24,9-12.87c3.88-3.64,9.2-6.34,14.75-6.18C658.39,533.08,663.9,535.87,665.78,540.58z"/>
					</g>
					<g>
						<path class="st0" d="M511.48,604.41c-3.93-7.21-6.38-15.3-7.44-23.6c-0.55-4.16-0.64-8.38-0.46-12.6
							c0.18-4.22,0.8-8.44,1.77-12.58l0.32-1.37l1.5-0.69c8.17-3.77,16.58-6.82,24.9-9.85c8.31-3.06,16.64-5.85,24.63-9.24
							l7.23-3.07l-1.61,7.75c-1.18,5.68-2.18,11.41-2.79,17.19c-0.6,5.78-0.96,11.59-1.07,17.41c-0.13,11.65,0.81,23.33,2.87,34.9
							l0.45,2.52l-2.26,0.48c-5.83,1.23-11.66,2.05-17.5,2.71c-5.84,0.66-11.71,1.12-17.58,1.26c5.72-1.31,11.39-2.73,17.05-4.17
							c5.64-1.46,11.28-2.96,16.76-4.67l-1.81,3c-3.32-11.65-5.17-23.78-5.51-35.97c-0.21-6.09-0.03-12.21,0.57-18.28
							c0.59-6.08,1.43-12.14,2.74-18.11l5.61,4.69c-8.39,3.34-16.84,6.25-25.29,8.9c-8.44,2.68-16.81,5.33-25.02,8.3l1.82-2.06
							c-1.16,3.73-2.01,7.57-2.63,11.46c-0.61,3.9-0.83,7.86-0.85,11.84C507.87,588.53,509.12,596.56,511.48,604.41z"/>
					</g>
					<g>
						<path class="st0" d="M458.83,626.33c3.9-0.68,7.71-1.55,11.43-2.69c3.76-1,7.35-2.57,11.7-3.11l-2.04,2.98
							c-3.56-8.72-5.52-18.18-5.77-27.7c-0.1-4.76,0.07-9.56,0.81-14.29c0.72-4.73,1.82-9.41,3.3-13.98l5.21,5.24
							c-3.37,1.15-6.79,2.07-10.17,3.01l-10.15,2.67c-6.78,1.59-13.47,3.31-20.09,5.05l2.03-1.96c-2.4,5.75-3.85,12.01-4.14,18.42
							c-0.38,6.43,0.44,12.97,2.23,19.44c-3.5-5.75-5.54-12.44-6.3-19.32c-0.68-6.88-0.04-14.01,2.13-20.76l0.43-1.34l1.6-0.63
							c6.61-2.59,13.39-4.48,20.04-6.54c6.7-1.89,13.34-3.79,19.81-5.91l7.91-2.59l-2.7,7.83c-1.42,4.11-2.5,8.34-3.24,12.64
							c-0.72,4.3-1.28,8.64-1.4,13.03c-0.29,8.76,0.61,17.61,2.78,26.27l0.75,2.99l-2.79,0c-3.5,0-7.49,0.74-11.45,1.16
							C466.79,626.64,462.77,626.69,458.83,626.33z"/>
					</g>
					<g>
						<path class="st0" d="M509.47,583.52c2.47-3.25,5.56-5.68,8.92-7.67c3.37-1.96,7.04-3.41,10.86-4.29
							c3.81-0.88,7.75-1.18,11.64-0.88c3.89,0.33,7.73,1.17,11.37,3.03c-3.76,1.6-7.34,2.55-10.84,3.48
							c-3.5,0.89-6.9,1.69-10.31,2.47c-3.41,0.78-6.82,1.54-10.36,2.26C517.18,582.6,513.54,583.31,509.47,583.52z"/>
					</g>
					<g>
						<path class="st0" d="M442.69,598.63c2.41-2.48,4.97-4.22,7.68-5.71c2.72-1.46,5.63-2.59,8.72-3.29
							c3.08-0.71,6.32-0.95,9.52-0.61c3.2,0.36,6.36,1.22,9.28,3.08c-3.08,1.6-5.93,2.54-8.72,3.42c-2.78,0.85-5.48,1.58-8.26,2.2
							c-2.77,0.62-5.64,1.15-8.67,1.43C449.23,599.39,446.05,599.45,442.69,598.63z"/>
					</g>
					<g>
						<path class="st0" d="M408.94,632.03c-2.62-4.71-4.3-10.03-5.01-15.53c-0.73-5.49-0.47-11.19,0.77-16.72l4.15,3.48
							c-8.5,4.75-17.21,9.13-26.08,13.15c-4.46,1.97-8.91,3.94-13.42,5.78c-4.53,1.78-9.08,3.53-13.64,5.23
							c-9.17,3.28-18.47,6.21-27.87,8.74c-9.43,2.44-18.94,4.58-28.63,5.92c8.93-3.98,17.92-7.57,26.85-11.26l26.8-10.85
							c4.47-1.78,8.93-3.59,13.37-5.45l13.35-5.48l26.68-11.12l6.31-2.63l-2.16,6.1c-1.67,4.73-2.63,9.78-2.89,14.94
							C407.28,621.51,407.75,626.77,408.94,632.03z"/>
					</g>
					<g>
						<path class="st0" d="M580.41,615.4c-3.08,6.61-6.6,12.99-10.24,19.29c-3.71,6.26-7.54,12.46-11.62,18.49
							c-4.01,6.08-8.26,11.98-12.56,17.84c-4.26,5.9-8.83,11.55-13.31,17.27l-2.81-6.68c7.9,0.68,15.77,1.61,23.66,2.4l5.91,0.7
							c1.97,0.22,4.08,0.57,5.16,0.48c1-0.05,1.91-0.48,3.13-1.56c1.14-1.03,2.47-2.56,3.81-4.03c5.3-5.9,10.7-11.72,16.16-17.48
							c5.52-5.71,11.03-11.45,16.85-16.92c-4.33,6.71-8.98,13.15-13.61,19.62c-4.69,6.41-9.44,12.77-14.29,19.05
							c-1.22,1.55-2.3,3.18-4.02,4.91c-1.6,1.66-4.24,3.47-7.24,3.78c-2.88,0.28-4.72-0.09-6.69-0.17l-5.93-0.44
							c-7.89-0.72-15.8-1.31-23.68-2.15l-7.56-0.81l4.75-5.88l27.21-33.65L580.41,615.4z"/>
					</g>
					<g>
						<path class="st0" d="M566.09,688.67c3.58,0.4,7.1,1.24,10.54,2.26c3.45,0.99,6.8,2.24,10.11,3.47l9.77,3.79
							c3.21,1.25,6.43,2.35,9.62,3.36l-5.32,3.45c0.39-4.91,1.12-9.83,2.25-14.67c1.11-4.85,2.77-9.58,4.66-14.15
							c4.03-9.09,9.33-17.34,15.79-24.69c-2.97,9.34-6.62,18.14-9.16,27.1c-2.69,8.91-4.3,17.96-5.45,27.23l-0.64,5.08l-4.69-1.63
							c-3.49-1.22-6.8-2.78-10.02-4.39c-3.24-1.57-6.29-3.43-9.35-5.19l-9-5.52L566.09,688.67z"/>
					</g>
					<g>
						<path class="st0" d="M641.41,652.33c4.79,10.89,8.57,22.03,12.13,33.23c1.68,5.63,3.46,11.23,4.96,16.9
							c1.54,5.66,3.1,11.32,4.44,17.03l1.6,6.83l-6.63-1.9c-4.5-1.29-8.99-2.63-13.45-4.1c-4.48-1.39-8.92-2.91-13.35-4.46
							c-4.44-1.53-8.84-3.2-13.22-4.91c-4.38-1.73-8.74-3.53-13.04-5.55c4.73,0.49,9.39,1.21,14.04,2
							c4.64,0.81,9.27,1.65,13.86,2.64c4.6,0.96,9.18,1.96,13.73,3.09c4.57,1.05,9.11,2.23,13.63,3.46l-5.03,4.93
							c-1.59-5.65-2.96-11.36-4.35-17.06c-1.43-5.69-2.59-11.45-3.84-17.19C644.57,675.75,642.49,664.17,641.41,652.33z"/>
					</g>
					<g>
						<path class="st0" d="M659,720.51c4.18-3.29,8.92-5.8,13.58-8.1c2.32-1.19,4.66-2.29,6.96-3.4c2.28-1.14,4.52-2.28,6.68-3.44
							l-1.75,4.8c-2.46-4.81-4.78-9.69-6.97-14.62c-2.17-4.94-4.31-9.89-6.19-14.96c-1.98-5.03-3.77-10.13-5.42-15.3
							c-1.67-5.16-3.13-10.42-4.24-15.82c3.25,4.46,6.16,9.08,8.85,13.78c2.72,4.7,5.29,9.46,7.68,14.3c2.48,4.8,4.7,9.72,6.9,14.65
							c2.18,4.94,4.22,9.93,6.12,14.99l1.3,3.45l-3.06,1.35c-2.5,1.11-5.04,1.98-7.59,2.73c-2.53,0.79-5.06,1.47-7.6,2.06
							C669.19,718.25,664.16,719.27,659,720.51z"/>
					</g>
					<g>
						<path class="st0" d="M686.36,709.6c4.45-3.34,9.08-6.33,13.76-9.2c2.34-1.43,4.68-2.87,7.08-4.21
							c2.39-1.34,4.74-2.77,7.17-4.03l-1.15,5.54c-3.97-4.3-7.91-8.61-11.66-13.08c-3.8-4.44-7.5-8.96-11.08-13.57l-5.34-6.96
							l-5.15-7.12c-3.34-4.82-6.64-9.68-9.65-14.78l1.18-0.98c0.71,1.23,1.4,2.48,2.07,3.75c-1.11-0.91-2.19-1.84-3.26-2.78
							l1.18-0.98c4.5,3.85,8.7,7.94,12.88,12.07l6.12,6.3l5.92,6.46c3.92,4.33,7.73,8.76,11.44,13.27
							c3.75,4.48,7.32,9.11,10.86,13.76l2.86,3.76l-4.01,1.78c-2.5,1.11-5.09,2.05-7.64,3.08c-2.54,1.04-5.14,1.96-7.73,2.9
							C697.03,706.46,691.78,708.21,686.36,709.6z"/>
					</g>
					<g>
						<path class="st0" d="M715.97,695.39c4.25-3.15,8.67-5.94,13.11-8.7c4.45-2.74,8.97-5.32,13.52-7.86l-1.18,5.25
							c-9.01-10.02-17.89-20.17-26.16-30.93c-4.15-5.36-8.15-10.86-11.9-16.56c-3.74-5.69-7.25-11.57-10.22-17.77
							c5,4.72,9.71,9.58,14.37,14.48c4.65,4.9,9.21,9.87,13.7,14.9c9,10.05,17.63,20.51,25.57,31.55l2.67,3.71l-3.85,1.55
							c-4.83,1.94-9.68,3.86-14.61,5.61C726.05,692.35,721.1,694.06,715.97,695.39z"/>
					</g>
				</g>
				<g>
					<path class="st8" d="M610.88,382.41c-3.86-7.28-10-14.96-18.23-14.65c-9.78,0.37-15.02,11.24-22.15,17.93
						c-21.56,20.24-57.27,5.33-82.62,6.35c-10.31,0.41-21.06,5.01-26.09,14.01c-5.03,9.01-1.97,22.45,7.62,26.25
						c-10.22-1.16-19.53,9.74-17.67,19.86c1.86,10.12,13.27,17.01,23.34,14.93c10.08-2.08,17.63-11.95,18.12-22.22
						c0.16-3.41-0.34-6.9,0.56-10.2c0.39-1.42,1.09-2.61,2-3.57c-1.04,7.59,2.92,15.76,9.76,19.33c7.52,3.92,17.65,1.86,23.05-4.68
						c5.19-6.3,5.69-15.09,7.92-22.95c7.66-26.98,30.93-8.11,45.53-21.5c3.77-3.46,5.42-9.14,9.98-11.47
						c4.54-2.32,10.35-0.17,13.76,3.62c7.27,8.07,14.96,24.67,17.83,35.01C623.78,412.84,618.19,396.2,610.88,382.41z M542.91,409.4
						c1.55-1.2,3.23-2.22,5.09-2.93c1.51-0.57,3.08-0.93,4.7-1.15L542.91,409.4z"/>
				</g>
			</g>
			<g>
				<path class="st0" d="M288.1,721.99c7.41-4.41,15.55-7.38,23.67-10.3l12.39-3.78l12.6-3.03c4.19-1.12,8.48-1.61,12.73-2.4
					c4.27-0.67,8.52-1.58,12.81-2.04l12.9-1.36c4.3-0.45,8.61-0.92,12.93-1.01l12.96-0.56c4.32-0.18,8.65-0.38,12.96-0.19
					c8.63,0.22,17.28,0.32,25.92,0.64l25.82,2.2l6.45,0.58l6.41,0.91l12.82,1.82c17.14,2.19,33.95,6.1,50.84,9.52l6.32,1.36
					l6.24,1.67l12.48,3.34c8.32,2.2,16.63,4.47,24.91,6.81c16.35,5.38,32.69,10.75,48.87,16.51c15.96,6.4,31.91,12.77,47.67,19.54
					c-16.54-4.71-32.88-9.82-49.21-14.9l-49.42-13.67c-8.32-1.91-16.64-3.81-24.93-5.82l-12.44-2.96l-6.22-1.48l-6.28-1.17
					c-16.75-3.1-33.38-6.9-50.28-8.89l-12.62-1.91l-6.31-0.95l-6.34-0.62l-25.38-2.48c-8.47-0.54-16.96-0.87-25.45-1.32
					c-4.25-0.32-8.49-0.19-12.73-0.19l-12.74-0.02c-4.26-0.11-8.49,0.17-12.73,0.42l-12.73,0.67c-4.25,0.19-8.45,0.83-12.68,1.22
					c-4.22,0.5-8.48,0.76-12.66,1.55l-12.61,1.98l-12.49,2.68C304.3,716.48,295.95,718.53,288.1,721.99z"/>
			</g>
		</g>
	</g>
</g>
<g>
</g>
<g>
</g>
<g>
</g>
<g>
</g>
<g>
</g>
<g>
</g>
</svg>
